<svg xmlns="http://www.w3.org/2000/svg" xmlns:xlink="http://www.w3.org/1999/xlink" width="500" zoomAndPan="magnify" viewBox="0 0 375 374.999991" height="500" preserveAspectRatio="xMidYMid meet" version="1.0"><defs><g/><clipPath id="2e16f913c4"><path d="M 1.03125 37.5 L 375 37.5 L 375 301.5 L 1.03125 301.5 Z M 1.03125 37.5 " clip-rule="nonzero"/></clipPath><clipPath id="03d83a9351"><rect x="0" width="291" y="0" height="40"/></clipPath></defs><path fill="#c1c2d9" d="M 369.011719 165.710938 L 369.011719 280.644531 L 362.113281 287.546875 L 352.066406 294.523438 L 327.394531 294.523438 L 320.421875 287.546875 L 292.679688 259.789062 L 285.707031 238.933594 L 264.9375 232.03125 L 257.964844 225.054688 L 119.097656 225.054688 L 112.125 232.03125 L 91.355469 238.933594 L 84.382812 259.789062 L 70.507812 273.667969 L 56.636719 287.546875 L 49.664062 294.523438 L 24.996094 294.523438 L 14.949219 287.546875 L 8.050781 280.644531 L 8.050781 165.710938 L 14.949219 162.558594 L 19.296875 152.582031 L 19.296875 127.824219 L 28.820312 120.847656 L 42.765625 93.089844 L 49.664062 76.285156 L 49.664062 67.882812 L 56.636719 65.257812 L 59.335938 58.355469 L 80.480469 58.355469 L 84.382812 51.378906 L 89.40625 44.476562 L 119.097656 44.476562 L 126.070312 51.378906 L 132.96875 58.355469 L 188.53125 56.554688 L 244.089844 58.355469 L 250.988281 51.378906 L 257.964844 44.476562 L 287.65625 44.476562 L 292.679688 51.378906 L 296.578125 58.355469 L 317.722656 58.355469 L 320.421875 65.257812 L 327.394531 67.882812 L 327.394531 76.285156 L 334.292969 93.089844 L 348.242188 120.847656 L 357.761719 127.824219 L 357.761719 152.582031 L 362.113281 162.558594 Z M 369.011719 165.710938 " fill-opacity="1" fill-rule="nonzero"/><path fill="#f7f7f0" d="M 56.636719 235.105469 L 56.636719 248.984375 L 28.820312 248.984375 L 28.820312 207.273438 L 42.765625 207.273438 L 42.765625 235.105469 Z M 56.636719 235.105469 " fill-opacity="1" fill-rule="nonzero"/><g clip-path="url(#2e16f913c4)"><path fill="#3e3467" d="M 98.253906 51.378906 L 84.382812 51.378906 L 84.382812 37.5 L 126.070312 37.5 L 126.070312 51.378906 Z M 84.382812 65.257812 L 84.382812 51.378906 L 56.636719 51.378906 L 56.636719 65.257812 Z M 56.636719 79.210938 L 56.636719 65.257812 L 42.765625 65.257812 L 42.765625 93.089844 L 56.636719 93.089844 Z M 139.941406 65.257812 L 250.988281 65.257812 L 250.988281 51.378906 L 126.070312 51.378906 L 126.070312 65.257812 Z M 42.765625 106.96875 L 42.765625 93.089844 L 28.820312 93.089844 L 28.820312 120.847656 L 42.765625 120.847656 Z M 28.820312 148.605469 L 28.820312 120.847656 L 14.949219 120.847656 L 14.949219 162.558594 L 28.820312 162.558594 Z M 84.382812 232.03125 L 84.382812 259.789062 L 98.253906 259.789062 L 98.253906 245.910156 L 112.125 245.910156 L 112.125 232.03125 Z M 14.949219 259.789062 L 14.949219 162.558594 L 1.078125 162.558594 L 1.078125 287.546875 L 14.949219 287.546875 Z M 70.507812 273.667969 L 84.382812 273.667969 L 84.382812 259.789062 L 70.507812 259.789062 Z M 56.636719 287.546875 L 70.507812 287.546875 L 70.507812 273.667969 L 56.636719 273.667969 Z M 28.820312 287.546875 L 14.949219 287.546875 L 14.949219 301.5 L 56.636719 301.5 L 56.636719 287.546875 Z M 278.808594 51.378906 L 292.679688 51.378906 L 292.679688 37.5 L 250.988281 37.5 L 250.988281 51.378906 Z M 306.550781 65.257812 L 320.421875 65.257812 L 320.421875 51.378906 L 292.679688 51.378906 L 292.679688 65.257812 Z M 320.421875 93.089844 L 334.292969 93.089844 L 334.292969 65.257812 L 320.421875 65.257812 Z M 334.292969 120.847656 L 348.242188 120.847656 L 348.242188 93.089844 L 334.292969 93.089844 Z M 348.242188 148.605469 L 348.242188 162.558594 L 362.113281 162.558594 L 362.113281 120.847656 L 348.242188 120.847656 Z M 362.113281 162.558594 L 362.113281 287.546875 L 375.984375 287.546875 L 375.984375 162.558594 Z M 250.988281 218.078125 L 112.125 218.078125 L 112.125 232.03125 L 264.9375 232.03125 L 264.9375 218.078125 Z M 292.679688 232.03125 L 264.9375 232.03125 L 264.9375 245.910156 L 278.808594 245.910156 L 278.808594 259.789062 L 292.679688 259.789062 Z M 292.679688 259.789062 L 292.679688 273.667969 L 306.550781 273.667969 L 306.550781 259.789062 Z M 306.550781 273.667969 L 306.550781 287.546875 L 320.421875 287.546875 L 320.421875 273.667969 Z M 334.292969 287.546875 L 320.421875 287.546875 L 320.421875 301.5 L 362.113281 301.5 L 362.113281 287.546875 Z M 112.125 134.726562 L 70.507812 134.726562 L 70.507812 93.089844 L 112.125 93.089844 Z M 98.253906 106.96875 L 84.382812 106.96875 L 84.382812 120.847656 L 98.253906 120.847656 Z M 250.765625 148.90625 L 264.636719 148.90625 L 264.636719 190.542969 L 223.023438 190.542969 L 223.023438 148.90625 Z M 250.765625 162.785156 L 236.894531 162.785156 L 236.894531 176.664062 L 250.765625 176.664062 Z M 153.8125 120.847656 L 167.6875 120.847656 L 167.6875 106.96875 L 153.8125 106.96875 Z M 223.246094 106.96875 L 209.375 106.96875 L 209.375 120.847656 L 223.246094 120.847656 Z M 264.9375 106.96875 L 264.9375 120.847656 L 278.808594 120.847656 L 278.808594 106.96875 Z M 181.558594 134.726562 L 195.429688 134.726562 L 195.429688 120.847656 L 181.558594 120.847656 Z M 153.8125 148.605469 L 126.070312 148.605469 L 126.070312 162.558594 L 112.125 162.558594 L 112.125 190.320312 L 126.070312 190.320312 L 126.070312 204.199219 L 153.8125 204.199219 L 153.8125 190.320312 L 167.6875 190.320312 L 167.6875 162.558594 L 153.8125 162.558594 Z M 292.679688 120.847656 L 306.550781 120.847656 L 306.550781 106.96875 L 292.679688 106.96875 Z M 278.808594 134.726562 L 292.679688 134.726562 L 292.679688 120.847656 L 278.808594 120.847656 Z M 292.679688 93.089844 L 278.808594 93.089844 L 278.808594 106.96875 L 292.679688 106.96875 Z M 292.679688 93.089844 " fill-opacity="1" fill-rule="nonzero"/></g><g transform="matrix(1, 0, 0, 1, 44, 309)"><g clip-path="url(#03d83a9351)"><g fill="#3e3467" fill-opacity="1"><g transform="translate(1.676041, 31.990007)"><g><path d="M 23.984375 0 L 23.984375 -16 L 18.65625 -16 L 18.65625 -21.328125 L 23.984375 -21.328125 L 23.984375 -26.65625 L 29.3125 -26.65625 L 29.3125 0 Z M 2.671875 0 L 2.671875 -26.65625 L 8 -26.65625 L 8 -21.328125 L 13.328125 -21.328125 L 13.328125 -16 L 8 -16 L 8 0 Z M 13.328125 -10.65625 L 13.328125 -16 L 18.65625 -16 L 18.65625 -10.65625 Z M 13.328125 -10.65625 "/></g></g></g><g fill="#3e3467" fill-opacity="1"><g transform="translate(33.649339, 31.990007)"><g><path d="M 2.671875 0 L 2.671875 -21.328125 L 8 -21.328125 L 8 -10.65625 L 23.984375 -10.65625 L 23.984375 -21.328125 L 29.3125 -21.328125 L 29.3125 0 L 23.984375 0 L 23.984375 -5.328125 L 8 -5.328125 L 8 0 Z M 8 -21.328125 L 8 -26.65625 L 23.984375 -26.65625 L 23.984375 -21.328125 Z M 8 -21.328125 "/></g></g></g><g fill="#3e3467" fill-opacity="1"><g transform="translate(65.622638, 31.990007)"><g><path d="M 8 -21.328125 L 8 -5.328125 L 2.671875 -5.328125 L 2.671875 -21.328125 Z M 8 0 L 8 -5.328125 L 29.3125 -5.328125 L 29.3125 0 Z M 8 -21.328125 L 8 -26.65625 L 29.3125 -26.65625 L 29.3125 -21.328125 Z M 8 -21.328125 "/></g></g></g><g fill="#3e3467" fill-opacity="1"><g transform="translate(97.595936, 31.990007)"><g><path d="M 23.984375 -5.328125 L 23.984375 0 L 8 0 L 8 -5.328125 Z M 2.671875 -5.328125 L 2.671875 -26.65625 L 8 -26.65625 L 8 -5.328125 Z M 23.984375 -5.328125 L 23.984375 -26.65625 L 29.3125 -26.65625 L 29.3125 -5.328125 Z M 23.984375 -5.328125 "/></g></g></g><g fill="#3e3467" fill-opacity="1"><g transform="translate(129.569235, 31.990007)"><g><path d="M 2.671875 0 L 2.671875 -26.65625 L 8 -26.65625 L 8 -16 L 18.65625 -16 L 18.65625 -10.65625 L 8 -10.65625 L 8 0 Z M 18.65625 -5.328125 L 18.65625 -10.65625 L 23.984375 -10.65625 L 23.984375 -5.328125 Z M 18.65625 -16 L 18.65625 -21.328125 L 23.984375 -21.328125 L 23.984375 -16 Z M 23.984375 0 L 23.984375 -5.328125 L 29.3125 -5.328125 L 29.3125 0 Z M 23.984375 -21.328125 L 23.984375 -26.65625 L 29.3125 -26.65625 L 29.3125 -21.328125 Z M 23.984375 -21.328125 "/></g></g></g><g fill="#3e3467" fill-opacity="1"><g transform="translate(161.542533, 31.990007)"><g><path d="M 2.671875 0 L 2.671875 -21.328125 L 8 -21.328125 L 8 -10.65625 L 23.984375 -10.65625 L 23.984375 -21.328125 L 29.3125 -21.328125 L 29.3125 0 L 23.984375 0 L 23.984375 -5.328125 L 8 -5.328125 L 8 0 Z M 8 -21.328125 L 8 -26.65625 L 23.984375 -26.65625 L 23.984375 -21.328125 Z M 8 -21.328125 "/></g></g></g><g fill="#3e3467" fill-opacity="1"><g transform="translate(193.515832, 31.990007)"><g><path d="M 2.671875 0 L 2.671875 -26.65625 L 23.984375 -26.65625 L 23.984375 -21.328125 L 8 -21.328125 L 8 -5.328125 L 23.984375 -5.328125 L 23.984375 0 Z M 23.984375 -5.328125 L 23.984375 -21.328125 L 29.3125 -21.328125 L 29.3125 -5.328125 Z M 23.984375 -5.328125 "/></g></g></g><g fill="#3e3467" fill-opacity="1"><g transform="translate(225.489131, 31.990007)"><g><path d="M 2.671875 0 L 2.671875 -21.328125 L 8 -21.328125 L 8 -10.65625 L 23.984375 -10.65625 L 23.984375 -21.328125 L 29.3125 -21.328125 L 29.3125 0 L 23.984375 0 L 23.984375 -5.328125 L 8 -5.328125 L 8 0 Z M 8 -21.328125 L 8 -26.65625 L 23.984375 -26.65625 L 23.984375 -21.328125 Z M 8 -21.328125 "/></g></g></g><g fill="#3e3467" fill-opacity="1"><g transform="translate(257.462429, 31.990007)"><g><path d="M 23.984375 0 L 23.984375 -16 L 18.65625 -16 L 18.65625 -21.328125 L 23.984375 -21.328125 L 23.984375 -26.65625 L 29.3125 -26.65625 L 29.3125 0 Z M 2.671875 0 L 2.671875 -26.65625 L 8 -26.65625 L 8 -21.328125 L 13.328125 -21.328125 L 13.328125 -16 L 8 -16 L 8 0 Z M 13.328125 -10.65625 L 13.328125 -16 L 18.65625 -16 L 18.65625 -10.65625 Z M 13.328125 -10.65625 "/></g></g></g></g></g></svg>